<mxfile host="65bd71144e" modified="2021-03-10T07:38:31.825Z" agent="5.0 (Windows NT 10.0; Win64; x64) AppleWebKit/537.36 (KHTML, like Gecko) Code/1.54.1 Chrome/87.0.4280.141 Electron/11.3.0 Safari/537.36" version="14.2.4" etag="UVqpJnnhpGSD33_efbxD" type="embed">
    <diagram id="sv0xUxmnmZtu0NdaJLpp" name="Page-1">
        <mxGraphModel dx="1118" dy="647" grid="1" gridSize="10" guides="1" tooltips="1" connect="1" arrows="1" fold="1" page="1" pageScale="1" pageWidth="827" pageHeight="1169" background="#EEEEEE" math="0" shadow="0">
            <root>
                <mxCell id="0"/>
                <mxCell id="1" parent="0"/>
                <mxCell id="2" value="0(当前执行线程)" style="rounded=0;whiteSpace=wrap;html=1;sketch=0;strokeColor=#909090;fillColor=#F5AB50;fontColor=#1A1A1A;" vertex="1" parent="1">
                    <mxGeometry x="170" y="80" width="120" height="60" as="geometry"/>
                </mxCell>
                <mxCell id="3" value="0(新线程)" style="rounded=0;whiteSpace=wrap;html=1;sketch=0;strokeColor=#909090;fillColor=#F5AB50;fontColor=#1A1A1A;" vertex="1" parent="1">
                    <mxGeometry x="380" y="80" width="120" height="60" as="geometry"/>
                </mxCell>
                <mxCell id="5" value="" style="endArrow=classic;startArrow=classic;html=1;strokeColor=#182E3E;fontColor=#1A1A1A;exitX=1;exitY=0.5;exitDx=0;exitDy=0;entryX=0;entryY=0.5;entryDx=0;entryDy=0;" edge="1" parent="1" source="2" target="3">
                    <mxGeometry width="50" height="50" relative="1" as="geometry">
                        <mxPoint x="350" y="230" as="sourcePoint"/>
                        <mxPoint x="400" y="180" as="targetPoint"/>
                    </mxGeometry>
                </mxCell>
                <mxCell id="7" value="0" style="rounded=0;whiteSpace=wrap;html=1;sketch=0;strokeColor=#909090;fillColor=#F5AB50;fontColor=#1A1A1A;" vertex="1" parent="1">
                    <mxGeometry x="120" y="330" width="120" height="60" as="geometry"/>
                </mxCell>
                <mxCell id="8" value="1" style="rounded=0;whiteSpace=wrap;html=1;sketch=0;strokeColor=#909090;fillColor=#F5AB50;fontColor=#1A1A1A;" vertex="1" parent="1">
                    <mxGeometry x="290" y="330" width="120" height="60" as="geometry"/>
                </mxCell>
                <mxCell id="9" value="0" style="rounded=0;whiteSpace=wrap;html=1;sketch=0;strokeColor=#909090;fillColor=#F5AB50;fontColor=#1A1A1A;" vertex="1" parent="1">
                    <mxGeometry x="474" y="330" width="120" height="60" as="geometry"/>
                </mxCell>
                <mxCell id="10" value="" style="endArrow=classic;startArrow=classic;html=1;strokeColor=#182E3E;fontColor=#1A1A1A;exitX=1;exitY=0.5;exitDx=0;exitDy=0;entryX=0;entryY=0.5;entryDx=0;entryDy=0;" edge="1" parent="1" source="7" target="8">
                    <mxGeometry width="50" height="50" relative="1" as="geometry">
                        <mxPoint x="210" y="490" as="sourcePoint"/>
                        <mxPoint x="260" y="440" as="targetPoint"/>
                    </mxGeometry>
                </mxCell>
                <mxCell id="11" value="" style="endArrow=classic;startArrow=classic;html=1;strokeColor=#182E3E;fontColor=#1A1A1A;exitX=1;exitY=0.5;exitDx=0;exitDy=0;entryX=0;entryY=0.5;entryDx=0;entryDy=0;" edge="1" parent="1" source="8" target="9">
                    <mxGeometry width="50" height="50" relative="1" as="geometry">
                        <mxPoint x="450" y="490" as="sourcePoint"/>
                        <mxPoint x="500" y="440" as="targetPoint"/>
                    </mxGeometry>
                </mxCell>
                <mxCell id="12" value="图7" style="text;html=1;strokeColor=none;fillColor=none;align=center;verticalAlign=middle;whiteSpace=wrap;rounded=0;sketch=0;fontColor=#1A1A1A;" vertex="1" parent="1">
                    <mxGeometry x="320" y="410" width="40" height="20" as="geometry"/>
                </mxCell>
                <mxCell id="13" value="0" style="rounded=0;whiteSpace=wrap;html=1;sketch=0;strokeColor=#909090;fillColor=#F5AB50;fontColor=#1A1A1A;" vertex="1" parent="1">
                    <mxGeometry x="120" y="480" width="120" height="60" as="geometry"/>
                </mxCell>
                <mxCell id="14" value="1" style="rounded=0;whiteSpace=wrap;html=1;sketch=0;strokeColor=#909090;fillColor=#F5AB50;fontColor=#1A1A1A;" vertex="1" parent="1">
                    <mxGeometry x="290" y="480" width="120" height="60" as="geometry"/>
                </mxCell>
                <mxCell id="15" value="0" style="rounded=0;whiteSpace=wrap;html=1;sketch=0;strokeColor=#909090;fillColor=#F5AB50;fontColor=#1A1A1A;" vertex="1" parent="1">
                    <mxGeometry x="474" y="480" width="120" height="60" as="geometry"/>
                </mxCell>
                <mxCell id="17" value="" style="endArrow=classic;startArrow=classic;html=1;strokeColor=#182E3E;fontColor=#1A1A1A;exitX=1;exitY=0.25;exitDx=0;exitDy=0;" edge="1" parent="1" source="13">
                    <mxGeometry width="50" height="50" relative="1" as="geometry">
                        <mxPoint x="380" y="440" as="sourcePoint"/>
                        <mxPoint x="470" y="510" as="targetPoint"/>
                    </mxGeometry>
                </mxCell>
                <mxCell id="20" value="图8" style="text;html=1;strokeColor=none;fillColor=none;align=center;verticalAlign=middle;whiteSpace=wrap;rounded=0;sketch=0;fontColor=#1A1A1A;" vertex="1" parent="1">
                    <mxGeometry x="320" y="570" width="40" height="20" as="geometry"/>
                </mxCell>
                <mxCell id="21" value="0" style="rounded=0;whiteSpace=wrap;html=1;sketch=0;strokeColor=#909090;fillColor=#F5AB50;fontColor=#1A1A1A;" vertex="1" parent="1">
                    <mxGeometry x="120" y="210" width="120" height="60" as="geometry"/>
                </mxCell>
                <mxCell id="22" value="0" style="rounded=0;whiteSpace=wrap;html=1;sketch=0;strokeColor=#909090;fillColor=#F5AB50;fontColor=#1A1A1A;" vertex="1" parent="1">
                    <mxGeometry x="290" y="210" width="120" height="60" as="geometry"/>
                </mxCell>
                <mxCell id="23" value="0" style="rounded=0;whiteSpace=wrap;html=1;sketch=0;strokeColor=#909090;fillColor=#F5AB50;fontColor=#1A1A1A;" vertex="1" parent="1">
                    <mxGeometry x="474" y="210" width="120" height="60" as="geometry"/>
                </mxCell>
                <mxCell id="24" value="" style="endArrow=classic;startArrow=classic;html=1;strokeColor=#182E3E;fontColor=#1A1A1A;exitX=1;exitY=0.5;exitDx=0;exitDy=0;entryX=0;entryY=0.5;entryDx=0;entryDy=0;" edge="1" parent="1" source="21" target="22">
                    <mxGeometry width="50" height="50" relative="1" as="geometry">
                        <mxPoint x="260" y="300" as="sourcePoint"/>
                        <mxPoint x="310" y="250" as="targetPoint"/>
                    </mxGeometry>
                </mxCell>
                <mxCell id="25" value="" style="endArrow=classic;startArrow=classic;html=1;strokeColor=#182E3E;fontColor=#1A1A1A;exitX=1;exitY=0.5;exitDx=0;exitDy=0;entryX=0;entryY=0.5;entryDx=0;entryDy=0;" edge="1" parent="1" source="22" target="23">
                    <mxGeometry width="50" height="50" relative="1" as="geometry">
                        <mxPoint x="410" y="340" as="sourcePoint"/>
                        <mxPoint x="460" y="290" as="targetPoint"/>
                    </mxGeometry>
                </mxCell>
                <mxCell id="28" value="图6" style="text;html=1;strokeColor=none;fillColor=none;align=center;verticalAlign=middle;whiteSpace=wrap;rounded=0;sketch=0;fontColor=#1A1A1A;" vertex="1" parent="1">
                    <mxGeometry x="320" y="280" width="40" height="20" as="geometry"/>
                </mxCell>
                <mxCell id="30" value="图5" style="text;html=1;strokeColor=none;fillColor=none;align=center;verticalAlign=middle;whiteSpace=wrap;rounded=0;sketch=0;fontColor=#1A1A1A;" vertex="1" parent="1">
                    <mxGeometry x="320" y="150" width="40" height="20" as="geometry"/>
                </mxCell>
            </root>
        </mxGraphModel>
    </diagram>
</mxfile>